<svg width="199" height="103" viewBox="0 0 199 103" fill="none" xmlns="http://www.w3.org/2000/svg">
<path d="M16 56C13.0667 56 10.4 55.3 8 53.9C5.6 52.5 3.7 50.6333 2.3 48.3C0.96667 45.9 0.300003 43.2333 0.300003 40.3C0.300003 34.3 3.3 29.8 9.3 26.8C6.3 25.6667 4.03334 24.2 2.5 22.4C1.03334 20.5333 0.300003 18.3 0.300003 15.7C0.300003 12.1667 1.46667 9.3 3.8 7.1C6.2 4.83333 9.3 3.2 13.1 2.2C16.9 1.13333 20.9333 0.599998 25.2 0.599998C33.1333 0.599998 40.0667 2.33333 46 5.8C51.9333 9.2 56.3333 14.4333 59.2 21.5C60.5333 24.7 61.5333 28.2667 62.2 32.2C62.8667 36.1333 63.2 40.1333 63.2 44.2C63.2 46.4 63.1 48.3667 62.9 50.1C62.7667 51.8333 62.5667 53.4 62.3 54.8L54.3 56C54.6333 54.5333 54.8667 52.8667 55 51C55.2 49.1333 55.3 46.9333 55.3 44.4C55.3 36.1333 54.1 29.3 51.7 23.9C49.3667 18.4333 45.9 14.3667 41.3 11.7C36.7667 9.03333 31.1667 7.7 24.5 7.7C19.7667 7.7 15.8333 8.36667 12.7 9.7C9.63334 11.0333 8.1 13.1 8.1 15.9C8.1 18.5667 9.5 20.6667 12.3 22.2C15.1 23.6667 18.8333 24.4 23.5 24.4V30.3C18.4333 30.2333 14.6 31 12 32.6C9.4 34.2 8.1 36.8667 8.1 40.6C8.1 43.2667 8.76667 45.3333 10.1 46.8C11.4333 48.2 13.3333 48.9 15.8 48.9C18.2 48.9 20 48.1667 21.2 46.7C22.4 45.2333 23.2667 42.7667 23.8 39.3H29.5C30.0333 42.7667 30.8333 45.2333 31.9 46.7C33.0333 48.1667 34.5333 48.9 36.4 48.9C38.1333 48.9 39.6333 48.3 40.9 47.1C42.2333 45.8333 43.0333 43.7667 43.3 40.9L50.2 42.7C48.6667 51.5667 44.3 56 37.1 56C34.7667 56 32.7 55.5 30.9 54.5C29.1667 53.5 27.7333 51.9333 26.6 49.8C25.4667 51.9333 24 53.5 22.2 54.5C20.4 55.5 18.3333 56 16 56Z" fill="white"/>
<path d="M183.2 56.4C186.133 56.4 188.8 55.7 191.2 54.3C193.6 52.9 195.5 51.0333 196.9 48.7C198.233 46.3 198.9 43.6333 198.9 40.7C198.9 34.7 195.9 30.2 189.9 27.2C192.9 26.0667 195.167 24.6 196.7 22.8C198.167 20.9333 198.9 18.7 198.9 16.1C198.9 12.5667 197.733 9.7 195.4 7.5C193 5.23333 189.9 3.6 186.1 2.6C182.3 1.53333 178.267 1 174 1C166.067 1 159.133 2.73333 153.2 6.2C147.267 9.6 142.867 14.8333 140 21.9C138.667 25.1 137.667 28.6667 137 32.6C136.333 36.5333 136 40.5333 136 44.6C136 46.8 136.1 48.7667 136.3 50.5C136.433 52.2333 136.633 53.8 136.9 55.2L144.9 56.4C144.567 54.9333 144.333 53.2667 144.2 51.4C144 49.5333 143.9 47.3333 143.9 44.8C143.9 36.5333 145.1 29.7 147.5 24.3C149.833 18.8333 153.3 14.7667 157.9 12.1C162.433 9.43333 168.033 8.1 174.7 8.1C179.433 8.1 183.367 8.76667 186.5 10.1C189.567 11.4333 191.1 13.5 191.1 16.3C191.1 18.9667 189.7 21.0667 186.9 22.6C184.1 24.0667 180.367 24.8 175.7 24.8V30.7C180.767 30.6333 184.6 31.4 187.2 33C189.8 34.6 191.1 37.2667 191.1 41C191.1 43.6667 190.433 45.7333 189.1 47.2C187.767 48.6 185.867 49.3 183.4 49.3C181 49.3 179.2 48.5667 178 47.1C176.8 45.6333 175.933 43.1667 175.4 39.7H169.7C169.167 43.1667 168.367 45.6333 167.3 47.1C166.167 48.5667 164.667 49.3 162.8 49.3C161.067 49.3 159.567 48.7 158.3 47.5C156.967 46.2333 156.167 44.1667 155.9 41.3L149 43.1C150.533 51.9667 154.9 56.4 162.1 56.4C164.433 56.4 166.5 55.9 168.3 54.9C170.033 53.9 171.467 52.3333 172.6 50.2C173.733 52.3333 175.2 53.9 177 54.9C178.8 55.9 180.867 56.4 183.2 56.4Z" fill="white"/>
<path d="M97.12 102.376C96.1813 96.8293 93.7067 90.856 89.696 84.456C85.6853 77.9707 79.968 71.9547 72.544 66.408C65.2053 60.8613 57.8667 57.32 50.528 55.784V50.408C57.7813 48.7013 64.736 45.544 71.392 40.936C78.1333 36.2427 83.7653 30.6107 88.288 24.04C92.896 17.2987 95.84 10.6427 97.12 4.072H102.496C103.264 8.33866 104.8 12.7333 107.104 17.256C109.408 21.6933 112.352 25.96 115.936 30.056C119.605 34.0667 123.701 37.6933 128.224 40.936C134.965 45.7147 141.835 48.872 148.832 50.408V55.784C144.139 56.7227 139.275 58.6427 134.24 61.544C129.291 64.4453 124.683 67.9013 120.416 71.912C116.149 75.8373 112.651 79.976 109.92 84.328C105.909 90.728 103.435 96.744 102.496 102.376H97.12Z" fill="#BAF4FF"/>
<path d="M100.31 85.7102L65.2643 50.6648C62.4689 47.8693 60.6052 44.6193 59.6734 40.9148C58.7643 37.2102 58.7757 33.5284 59.7075 29.8693C60.6393 26.1875 62.4916 22.983 65.2643 20.2557C68.1052 17.4602 71.3439 15.608 74.9802 14.6989C78.6393 13.767 82.287 13.767 85.9234 14.6989C89.5825 15.6307 92.8325 17.483 95.6734 20.2557L100.31 24.7557L104.946 20.2557C107.81 17.483 111.06 15.6307 114.696 14.6989C118.332 13.767 121.969 13.767 125.605 14.6989C129.264 15.608 132.514 17.4602 135.355 20.2557C138.128 22.983 139.98 26.1875 140.912 29.8693C141.844 33.5284 141.844 37.2102 140.912 40.9148C140.003 44.6193 138.151 47.8693 135.355 50.6648L100.31 85.7102Z" fill="#7F5DE5"/>
</svg>
